<svg width="509" height="398" viewBox="0 0 509 398" fill="none" xmlns="http://www.w3.org/2000/svg">
<path fill-rule="evenodd" clip-rule="evenodd" d="M432.309 2.46731C417.154 5.15107 415.235 9.47297 430.134 7.36865C435.819 6.56483 442.426 5.36672 444.819 4.70886C447.632 3.93335 445.078 7.71284 437.59 15.409L426.009 27.3095L442.8 28.8322C453.681 29.819 460.401 29.5467 461.887 28.0589C463.497 26.4469 459.829 25.7607 449.606 25.7607C441.588 25.7607 435.029 25.1747 435.029 24.4602C435.029 23.7435 439.924 18.7529 445.907 13.3657C451.89 7.98078 456.785 2.68297 456.785 1.59596C456.785 -0.782827 449.125 -0.510531 432.309 2.46731ZM472.014 3.97692C472.014 5.17503 477.012 6.1553 483.119 6.1553H494.221L487.041 14.3242C479.895 22.4583 479.886 22.4953 484.981 23.2338C492.061 24.2576 509 21.5259 509 19.3606C509 18.3825 504.351 18.0732 498.666 18.6744L488.332 19.768L495.402 12.3136C499.29 8.21387 502.473 4.1708 502.473 3.32777C502.473 2.48692 495.62 1.79855 487.244 1.79855C478.541 1.79855 472.014 2.73307 472.014 3.97692ZM396.956 45.7451C388.579 48.1609 380.795 51.0233 379.659 52.1081C376.557 55.0686 381.935 54.5523 396.329 50.5092C403.319 48.5443 409.655 47.5532 410.407 48.3069C411.16 49.0606 408.774 54.5131 405.103 60.423C401.435 66.3329 398.861 71.5981 399.386 72.123C401.009 73.7481 437.205 62.133 437.205 59.9873C437.205 57.8852 434.418 58.408 417.08 63.7537C411.395 65.5073 406.746 66.5551 406.746 66.0802C406.746 65.6075 408.604 61.9784 410.873 58.0159C416.897 47.503 418.518 40.9723 415.05 41.1814C413.475 41.2772 405.332 43.3315 396.956 45.7451ZM192.447 59.7063C109.994 72.4542 43.8503 115.063 13.5092 174.979C-14.6521 230.593 2.36998 303.499 53.8169 347.624C93.6655 381.801 128.471 395.544 180.499 397.646C216.927 399.119 236.36 396.137 256.68 385.959C306.707 360.899 336.212 287.231 304.078 267.617C290.383 259.254 276.461 263.391 270.539 277.579C268.814 281.715 267.506 292.27 267.506 302.07C267.506 340.009 251.909 357.932 214.204 363.324C166.168 370.192 131.184 361.117 91.2767 331.441C82.3044 324.769 76.9219 320.003 79.3151 320.85C100.691 328.424 118.078 331.278 143.496 331.387C172.351 331.509 189.208 327.54 194.303 319.425C197.373 314.535 190.568 306.771 183.214 306.771H177.919L183.656 299.944C193.537 288.187 198.48 275.999 199.577 260.688C200.597 246.476 200.752 246.164 207.411 244.886C211.147 244.167 231.826 242.969 253.365 242.219C298.263 240.66 311.171 242.792 333.908 255.525C349.625 264.323 379.836 286.732 401.968 306.004C414.635 317.033 419.325 319.841 425.091 319.841C429.066 319.841 433.462 318.465 434.857 316.783C440.601 309.854 434.537 301.434 396.655 263.733C375.88 243.058 358.882 225.657 358.882 225.067C358.882 224.476 360.142 223.993 361.684 223.993C363.225 223.993 367.876 221.091 372.019 217.547C376.161 214.001 380.358 211.06 381.343 211.012C382.329 210.962 397.993 222.71 416.153 237.118C434.313 251.523 451.37 263.883 454.061 264.583C462.205 266.698 465.488 264.062 465.488 255.409C465.488 248.582 463.708 245.766 452.719 235.19C445.696 228.432 430.053 215.062 417.959 205.477C400.049 191.285 396.211 187.242 397.282 183.693C398.004 181.297 399.051 170.991 399.605 160.792C400.756 139.637 396.225 122.308 384.522 103.093C375.373 88.0709 361.058 71.2495 358.678 72.7221C357.594 73.393 356.707 77.3141 356.707 81.4378C356.707 85.5614 356.232 88.9336 355.651 88.9336C355.071 88.9336 349.749 85.947 343.825 82.2961C307.579 59.9677 248.141 51.0974 192.447 59.7063ZM277.297 63.6949C288.066 65.3483 303.241 68.8359 311.019 71.4478C325.48 76.3012 351.12 89.5239 353.476 93.3426C356.702 98.5685 361.058 95.2552 361.058 87.5786C361.058 80.5817 361.454 80.0153 364.55 82.588C370.522 87.5503 385.542 111.07 389.648 121.888C403.539 158.498 395.739 195.461 370.167 214.192C355.954 224.605 340.968 227.718 321.311 224.344C277.819 216.876 243.213 183.042 234.811 139.773C233.379 132.39 232.566 125.269 233.005 123.949C233.456 122.596 237.302 124.432 241.803 128.149C246.203 131.778 250.308 133.93 250.926 132.928C252.399 130.543 232.32 115.05 229.79 116.616C226.979 118.355 230.025 141.267 234.985 155.703C240.605 172.056 249.509 185.582 263.597 199.155C285.409 220.176 305.978 228.642 335.581 228.779L354.703 228.868L379.794 252.026C408.723 278.725 432.853 305.784 432.853 311.522C432.853 314.496 431.18 315.485 426.152 315.485C420.955 315.485 414.735 311.533 398.413 297.859C353.532 260.263 325.417 243.518 299.921 239.194C284.426 236.566 238.096 237.294 209.724 240.607L198.717 241.895L196.081 233.081C192.658 221.645 178.891 204.32 166.373 195.698C145.978 181.647 116.407 175.694 89.9321 180.31C75.2728 182.867 54.2955 192.221 54.2955 196.201C54.2955 197.31 55.0308 197.841 55.9272 197.384C78.3296 185.982 83.7164 184.312 100.647 183.521C115.946 182.806 117.473 183.035 111.406 185.139C102.618 188.187 102.253 191.317 110.683 191.317C119.157 191.317 124.213 189.204 122.475 186.39C120.295 182.856 138.768 186.019 151.017 191.276C166.188 197.789 187.62 220.333 192.432 234.841C197.062 248.798 196.115 269.405 190.287 281.513C186.086 290.239 174.079 303.66 166.34 308.279C162.637 310.487 163.816 310.851 174.253 310.721C187.398 310.555 191.36 311.879 191.36 316.439C191.36 322.283 167.497 328.431 144.584 328.485C123.861 328.535 105.808 325.34 82.3283 317.463C71.4589 313.816 62.106 311.293 61.5447 311.858C60.0196 313.385 89.7254 336.593 105.44 346.152C132.853 362.825 160.109 370.545 189.184 369.866C205.886 369.476 206.656 369.604 206.045 372.667C205.693 374.434 208.825 375.63 214.974 376.072C222.038 376.579 224.205 376.024 223.498 373.893C222.976 372.321 219.919 370.933 216.706 370.813C208.351 370.497 206.687 367.766 214.848 367.766C226.635 367.766 246.224 359.015 255.843 349.454C267.049 338.316 271.857 323.386 271.857 299.733C271.857 279.929 275.325 271.157 284.302 268.255C293.542 265.267 299.296 267.112 306.563 275.398C312.45 282.114 313.188 284.478 313.142 296.5C313.085 311.5 306.92 329.252 296.501 344.409C286.721 358.634 269.264 375.492 258.721 380.888C245.556 387.626 217.319 395.2 226.106 389.634C230.777 386.676 227.299 384.437 220.635 386.112C216.793 387.077 215.298 388.604 216.114 390.73C217.141 393.414 213.035 393.891 189.66 393.81C173.896 393.758 156.371 392.399 148.935 390.656C141.694 388.959 139.005 387.776 142.898 387.998C151.45 388.491 152.201 384.722 143.998 382.481C137.032 380.577 131.743 382.014 133.749 385.265C135.894 388.739 124.89 385.687 108.686 378.311C71.5416 361.405 34.3886 328.054 20.5059 299.151C-5.38828 245.249 0.353182 192.112 37.0994 145.567C47.5076 132.383 79.7198 105.2 95.8259 96.0046C108.229 88.927 130.686 79.7387 132.109 81.1611C132.568 81.6229 130.914 82.6468 128.43 83.4354C125.947 84.2239 123.915 86.2738 123.915 87.9903C123.915 91.796 124.27 91.8156 130.738 88.3781C141.823 82.4856 142.447 81.7667 137.913 80.1242C132.611 78.2051 164.978 68.1018 182.657 66.1543C194.344 64.8669 194.484 64.917 188.64 68.2412C177.507 74.5759 182.096 78.5188 193.644 72.5391C200.262 69.1125 202.127 65.1675 197.342 64.7144C195.848 64.5728 197.56 63.708 201.15 62.7931C212.137 59.9939 256.595 60.521 277.297 63.6949ZM257.809 69.1779C257.12 70.2932 257.577 71.8355 258.821 72.6066C261.834 74.4713 274.033 71.7026 274.033 69.1561C274.033 66.5268 259.432 66.5464 257.809 69.1779ZM192.743 75.1728C184.711 79.3858 188.122 83.7817 196.468 79.9739C199.642 78.5275 202.238 76.5778 202.238 75.6433C202.238 72.1732 198.785 72.0032 192.743 75.1728ZM197.342 83.6445C192.112 86.4851 189.147 91.112 192.556 91.112C196.224 91.112 206.532 84.0693 205.444 82.3048C203.9 79.8018 204.642 79.6798 197.342 83.6445ZM256.628 82.3985C256.628 83.5966 259.565 84.5768 263.155 84.5768C266.745 84.5768 269.682 83.5966 269.682 82.3985C269.682 81.2003 266.745 80.2201 263.155 80.2201C259.565 80.2201 256.628 81.2003 256.628 82.3985ZM254.901 88.4217C253.443 88.9074 252.803 90.2014 253.48 91.2971C255.057 93.8545 267.506 93.9155 267.506 91.3668C267.506 89.1427 258.817 87.1146 254.901 88.4217ZM133.582 92.0225C131.26 93.7216 129.935 95.6865 130.636 96.3902C132.405 98.1612 145.672 93.3165 145.672 90.8985C145.672 87.8814 138.303 88.5654 133.582 92.0225ZM202.782 92.1815C198.894 93.8741 195.711 96.2856 195.711 97.5425C195.711 100.359 195.704 100.359 204.089 97.4336C207.857 96.1179 210.94 93.6672 210.94 91.9877C210.94 88.3694 211.578 88.3541 202.782 92.1815ZM345.898 103.457C345.935 104.455 347.395 107.16 349.138 109.469C352.875 114.414 356.502 112.155 353.21 106.931C350.708 102.958 345.789 100.621 345.898 103.457ZM138.42 105.635C133.238 110.822 140.417 112.419 146.888 107.519C150.954 104.439 150.902 104.317 145.491 104.252C142.399 104.213 139.216 104.836 138.42 105.635ZM330.599 108.123C330.599 112.081 336.602 117.834 339.112 116.279C341.099 115.052 340.825 113.606 338.018 110.502C334.132 106.202 330.599 105.069 330.599 108.123ZM317.545 112.558C317.545 114.667 324.768 121.609 326.964 121.609C329.507 121.609 328.543 117.061 325.315 113.83C321.886 110.395 317.545 109.685 317.545 112.558ZM69.416 117.834C61.6991 123.071 58.6598 128.199 63.3613 128.055C67.6255 127.927 81.1143 115.771 78.6711 114.259C77.5246 113.549 73.3605 115.159 69.416 117.834ZM147.91 117.168C146.15 118.283 145.369 119.856 146.176 120.664C148.221 122.709 158.725 119.821 158.725 117.211C158.725 114.516 152.137 114.49 147.91 117.168ZM306.667 116.987C306.667 119.771 313.064 124.644 314.645 123.062C316.225 121.479 311.358 115.074 308.578 115.074C307.527 115.074 306.667 115.935 306.667 116.987ZM74.235 126.672C71.6221 129.456 70.0948 132.344 70.8389 133.091C72.401 134.653 84.7542 126.031 84.7542 123.378C84.7542 119.875 78.8887 121.712 74.235 126.672ZM299.597 126.389C302.223 129.018 305.027 130.512 305.83 129.711C307.947 127.591 302.388 121.609 298.302 121.609C295.506 121.609 295.759 122.548 299.597 126.389ZM85.718 133.412C83.3966 135.111 82.1456 137.152 82.9397 137.945C84.7737 139.781 93.4566 135.222 93.4566 132.425C93.4566 129.454 90.6305 129.815 85.718 133.412ZM101.615 141.689C98.3235 142.827 95.6323 145.094 95.6323 146.728C95.6323 149.087 96.9833 149.229 102.163 147.423C105.755 146.168 109.197 144.325 109.813 143.33C111.699 140.274 107.911 139.515 101.615 141.689ZM382.814 145.136C382.814 150.793 378.498 154.285 371.501 154.285C368.15 154.285 365.409 155.265 365.409 156.463C365.409 160.299 379.755 158.872 383.565 154.657C387.503 150.301 388.466 141.215 384.99 141.215C383.793 141.215 382.814 142.979 382.814 145.136ZM315.735 171.936C312.861 176.543 306.724 176.859 297.421 172.875C295.326 171.98 293.614 172.174 293.614 173.306C293.614 175.912 303.334 180.425 308.945 180.425C313.397 180.425 321.897 173.276 321.897 169.533C321.897 165.874 318.751 167.1 315.735 171.936ZM355.075 174.435C355.373 175.934 353.907 177.023 351.811 176.855C346.501 176.432 347.032 180.578 352.473 182.003C358.926 183.693 357.501 194.317 350.691 195.284C347.982 195.67 346.327 196.896 347.012 198.007C349.105 201.397 356.289 200.268 359.302 196.075C360.866 193.899 363.858 191.481 365.953 190.699C369.947 189.206 371.342 180.425 367.585 180.425C366.388 180.425 365.409 181.896 365.409 183.693C365.409 185.49 364.534 186.96 363.466 186.96C361.11 186.96 358.882 181.582 358.882 175.89C358.882 173.592 357.903 171.712 356.707 171.712C355.51 171.712 354.777 172.938 355.075 174.435ZM430.678 220.956C454.207 240.847 460.468 247.593 462.305 255.035C463.582 260.206 463.127 261.025 458.989 261.025C453.202 261.025 448.32 257.681 413.273 229.709C398.315 217.771 385.721 207.731 385.286 207.4C384.85 207.067 386.652 203.3 389.289 199.029L394.082 191.261L403.134 198.292C408.112 202.159 420.507 212.358 430.678 220.956ZM12.1015 197.48C9.48643 201.715 8.11362 217.458 10.3589 217.458C12.6367 217.458 13.4896 215.432 16.0285 203.976C17.2817 198.316 14.4621 193.652 12.1015 197.48ZM103.238 197.868C102.492 199.074 103.343 200.623 105.127 201.307C109.98 203.172 118.013 201.49 119.031 198.397C120.13 195.058 105.279 194.561 103.238 197.868ZM18.6284 201.305C16.9967 205.559 19.2702 215.279 21.8962 215.279C24.4308 215.279 24.4242 200.652 21.8896 199.083C20.8171 198.419 19.3507 199.421 18.6284 201.305ZM27.1503 202.129C25.412 204.943 30.009 213.578 32.4436 212.071C34.5474 210.768 32.9461 202.717 30.2505 201.05C29.2824 200.451 27.8856 200.935 27.1503 202.129ZM35.05 203.412C35.4655 205.546 37.119 207.733 38.7311 208.269C40.6021 208.895 41.3854 207.847 40.9067 205.363C40.4912 203.229 38.8377 201.042 37.2256 200.506C35.3545 199.88 34.5713 200.928 35.05 203.412ZM102.159 208.744C102.159 209.942 104.607 210.923 107.598 210.923C110.59 210.923 113.037 209.942 113.037 208.744C113.037 207.546 110.59 206.566 107.598 206.566C104.607 206.566 102.159 207.546 102.159 208.744ZM163.076 208.365C163.076 211.315 173.815 220.501 175.406 218.911C176.213 218.103 174.577 214.994 171.77 212.003C166.634 206.527 163.076 205.039 163.076 208.365ZM152.29 214.735C152.422 217.092 167.758 226.566 169.164 225.158C171.181 223.139 160.363 213.101 156.171 213.101C153.987 213.101 152.24 213.837 152.29 214.735ZM143.496 223.777C143.496 225.498 157.389 234.885 159.937 234.885C163.401 234.885 159.826 228.652 154.583 225.553C147.61 221.427 143.496 220.769 143.496 223.777ZM137.989 230.637C137.189 231.935 136.875 233.227 137.295 233.51C145.404 238.987 150.016 241.013 150.945 239.509C151.578 238.483 150.406 236.194 148.339 234.419C142.167 229.114 139.525 228.149 137.989 230.637ZM128.267 238.991C128.267 240.83 137.715 247.955 140.156 247.955C142.793 247.955 141.055 242.788 137.513 240.095C133.123 236.758 128.267 236.179 128.267 238.991ZM60.855 255.035C60.905 259.032 64.7102 264.393 66.3419 262.759C68.2434 260.855 65.389 252.312 62.8522 252.312C61.7361 252.312 60.8376 253.538 60.855 255.035ZM47.0006 256.15C46.1935 257.459 47.8361 261.215 50.6513 264.493C57.3348 272.27 59.8999 268.116 53.4296 259.993C50.3446 256.117 47.9166 254.667 47.0006 256.15ZM33.7968 260.751C32.4175 262.984 42.1534 274.096 45.4886 274.096C49.024 274.096 48.1037 271.366 42.3644 264.837C36.6664 258.355 35.5917 257.843 33.7968 260.751ZM10.7831 265.452C10.7831 271.118 17.4253 282.809 20.643 282.809C22.5989 282.809 23.8216 282.073 23.3604 281.175C22.8969 280.278 20.8453 275.867 18.7981 271.373C15.3171 263.733 10.7831 260.383 10.7831 265.452ZM21.6612 264.437C21.6612 266.809 26.6869 275.2 29.0583 276.786C36.1856 281.552 36.5229 276.274 29.5696 268.763C24.6396 263.437 21.6612 261.807 21.6612 264.437ZM175.406 264.657C173.095 266.97 173.728 282.809 176.13 282.809C177.327 282.809 178.306 278.398 178.306 273.006C178.306 263.034 177.975 262.082 175.406 264.657ZM162.648 273.139C161.769 280.676 163.205 284.133 166.037 281.297C168.165 279.167 167.691 265.382 165.489 265.382C164.425 265.382 163.146 268.872 162.648 273.139ZM184.833 273.006C184.833 277.2 185.812 280.631 187.008 280.631C188.205 280.631 189.184 277.2 189.184 273.006C189.184 268.813 188.205 265.382 187.008 265.382C185.812 265.382 184.833 268.813 184.833 273.006ZM265.359 343.174C260.744 349.047 261.523 354.406 266.401 350.354C268.498 348.611 269.562 348.727 270.398 350.792C271.19 352.752 272.854 351.97 275.878 348.221C280.747 342.183 280.421 340.488 274.066 338.824C271.074 338.042 268.302 339.425 265.359 343.174ZM85.2546 342.037C86.6013 346.086 97.5468 353.506 99.4048 351.63C100.321 350.705 98.1342 347.59 94.5444 344.708C87.428 338.996 83.9035 337.981 85.2546 342.037ZM284.056 346.958C277.688 355.321 279.677 359.438 286.447 351.905C292.589 345.069 293.981 342.111 291.717 340.708C290.633 340.037 287.187 342.849 284.056 346.958ZM78.2273 346.821C78.2273 350.219 88.7899 357.917 90.7523 355.95C92.2035 354.499 82.7548 343.804 80.0244 343.804C79.0366 343.804 78.2273 345.161 78.2273 346.821ZM71.7004 349.96C71.7004 352.909 82.4393 362.095 84.0297 360.505C84.8368 359.697 83.2008 356.588 80.3942 353.598C75.2576 348.121 71.7004 346.633 71.7004 349.96ZM147.847 369.844C147.847 372.806 158.214 377.719 160.222 375.708C162.154 373.774 158.869 370.807 152.742 368.953C149.757 368.051 147.847 368.397 147.847 369.844ZM139.145 376.03C139.145 378.499 152.27 383.67 154.037 381.899C155.864 380.071 151.585 376.904 145.128 375.307C141.573 374.429 139.145 374.721 139.145 376.03ZM207.77 380.686C207.081 381.801 207.537 383.343 208.782 384.114C211.795 385.979 223.994 383.21 223.994 380.664C223.994 378.035 209.393 378.054 207.77 380.686Z" fill="black"/>
</svg>
